<svg xmlns="http://www.w3.org/2000/svg" viewBox="0 0 300 80" width="300" height="80">
  <!-- Texto DiveTech -->
  <text x="10" y="50" font-family="Raleway, sans-serif" font-size="40" font-weight="700" fill="#ffffff">
    DiveTech
  </text>
  
  <!-- Texto Chile -->
  <text x="190" y="50" font-family="Montserrat, sans-serif" font-size="30" font-weight="500" fill="#ffffff">
    Chile
  </text>
  
  <!-- Icono de buceo -->
  <g transform="translate(250, 35) scale(0.04)">
    <path d="M256 144c0-44.2 35.8-80 80-80s80 35.8 80 80v16c0 44.2-35.8 80-80 80s-80-35.8-80-80V144zM80 144v16c0 44.2-35.8 80-80 80s-80-35.8-80-80V144C-80 99.8-44.2 64 0 64S80 99.8 80 144zM538.5 171l-5.2-1.9L459.9 416H52.1L-21.5 169.1l-5.2 1.9C-48.9 181.8-64 207-64 234.1c0 13.1 2.6 25.7 7.5 37.3L-19.3 384H467.3l37.2-112.6c4.9-11.6 7.5-24.2 7.5-37.3c0-27.1-15.1-52.3-37.5-63.1zM192 128c0-17.7-14.3-32-32-32s-32 14.3-32 32s14.3 32 32 32s32-14.3 32-32zm96 0c17.7 0 32-14.3 32-32s-14.3-32-32-32s-32 14.3-32 32s14.3 32 32 32z" fill="#ffffff"/>
  </g>
  
  <!-- Ondas de agua -->
  <path d="M10,70 Q30,60 50,70 T90,70 T130,70 T170,70 T210,70 T250,70 T290,70" stroke="#ffffff" stroke-width="2" fill="none" opacity="0.7" />
  <path d="M10,75 Q30,65 50,75 T90,75 T130,75 T170,75 T210,75 T250,75 T290,75" stroke="#ffffff" stroke-width="2" fill="none" opacity="0.9" />
</svg>